<svg xmlns="http://www.w3.org/2000/svg" viewBox="0 0 48 48" width="48" height="48">
  <rect width="48" height="48" rx="10" fill="#0b0d10"/>
  <g stroke="#22c55e" stroke-width="2" stroke-linecap="round" opacity="0.9">
    <line x1="16" y1="6" x2="16" y2="42"/>
    <line x1="32" y1="6" x2="32" y2="42"/>
    <line x1="6" y1="16" x2="42" y2="16"/>
    <line x1="6" y1="32" x2="42" y2="32"/>
  </g>
  <path d="M24 14c-2.3 0-4.3 1.1-5.4 2.6-.5.7-1 1.5-1.5 2.3-.4.7-.9 1.3-1.6 1.6-.6.3-.9.9-.7 1.6.1.5.5.9 1 1l1.3.2-.2 1.2c-.1.6.1 1.2.6 1.5l2.2 1.4v6.6c0 .6.4 1 1 1h8c.6 0 1-.4 1-1v-7.6c0-.7-.2-1.4-.5-2-1.1-2-2.3-5.7-2.3-7.4 0-.8-.7-1.5-1.9-1.5z" fill="#22c55e"/>
</svg>
