<svg xmlns="http://www.w3.org/2000/svg" viewBox="0 0 192 192" width="192" height="192">
  <rect width="192" height="192" fill="#0b0d10"/>
  <g stroke="#22c55e" stroke-width="6" stroke-linecap="round" opacity="0.9">
    <line x1="64" y1="18" x2="64" y2="174"/>
    <line x1="128" y1="18" x2="128" y2="174"/>
    <line x1="18" y1="64" x2="174" y2="64"/>
    <line x1="18" y1="128" x2="174" y2="128"/>
  </g>
  <path d="M96 60c-9 0-17 4-22 10-2 3-4 6-6 9-1 3-4 5-6 6-3 1-4 4-3 6 0 2 2 4 4 4l5 1-1 5c-1 2 1 5 3 6l9 6v26c0 3 2 4 4 4h32c3 0 4-2 4-4V99c0-3-1-6-2-8-4-8-9-22-9-29 0-3-3-6-7-6z" fill="#22c55e"/>
  <circle cx="84" cy="78" r="3.5" fill="#0b0d10"/>
</svg>
