<svg xmlns="http://www.w3.org/2000/svg" viewBox="0 0 512 512" width="512" height="512">
  <rect width="512" height="512" fill="#0b0d10"/>
  <g stroke="#22c55e" stroke-width="14" stroke-linecap="round" opacity="0.9">
    <line x1="170" y1="48" x2="170" y2="464"/>
    <line x1="342" y1="48" x2="342" y2="464"/>
    <line x1="48" y1="170" x2="464" y2="170"/>
    <line x1="48" y1="342" x2="464" y2="342"/>
  </g>
  <path d="M256 160c-25 0-46 11-58 27-6 8-11 16-17 24-4 8-10 14-17 17-8 3-10 11-8 17 1 5 6 9 11 11l14 2-3 13c-1 6 2 13 8 16l23 15v70c0 7 4 11 11 11h85c7 0 11-4 11-11v-81c0-8-3-16-5-22-12-22-25-61-25-79 0-9-8-16-17-16z" fill="#22c55e"/>
  <circle cx="224" cy="208" r="9" fill="#0b0d10"/>
</svg>
